<svg width="20" height="20" viewBox="0 0 20 20" fill="none" xmlns="http://www.w3.org/2000/svg">
<g clip-path="url(#clip0_101_737)">
<path d="M10 20C15.5228 20 20 15.5228 20 10C20 4.47715 15.5228 0 10 0C4.47715 0 0 4.47715 0 10C0 15.5228 4.47715 20 10 20Z" fill="#0019FD"/>
<path d="M13.3771 6.06794C10.9966 7.66681 8.68189 10.6884 8.68189 10.6884C8.21 10.1646 7.71143 9.66881 7.18844 9.20339C7.05128 9.08143 6.87672 9.0178 6.69826 9.02469C6.51979 9.03159 6.35001 9.10853 6.22149 9.24075C6.09296 9.37298 6.01476 9.55116 6.00189 9.74111C5.98901 9.93105 6.04238 10.1194 6.15173 10.2699C6.89612 11.3025 7.54361 12.4104 8.08487 13.578C8.14349 13.7034 8.23344 13.8092 8.34481 13.8837C8.45619 13.9581 8.58468 13.9984 8.71612 14C8.84756 14.0015 8.97686 13.9644 9.08978 13.8926C9.2027 13.8209 9.29486 13.7173 9.35612 13.5932C10.8366 10.623 12.1187 8.95796 13.9038 6.71112C13.9666 6.6323 14.0007 6.53208 14 6.4287C13.9993 6.32532 13.9639 6.22563 13.9001 6.14776C13.8363 6.06989 13.7485 6.019 13.6525 6.00436C13.5565 5.98971 13.4588 6.01227 13.3771 6.06794Z" fill="white"/>
</g>
<defs>
<clipPath id="clip0_101_737">
<rect width="20" height="20" fill="white"/>
</clipPath>
</defs>
</svg>
