<svg width="25" height="24" viewBox="0 0 25 24" fill="none" xmlns="http://www.w3.org/2000/svg">
<path d="M25 12C25 18.6274 19.4036 24 12.5 24C5.59644 24 0 18.6274 0 12C0 5.37258 5.59644 0 12.5 0C19.4036 0 25 5.37258 25 12Z" fill="#F8704C"/>
<path d="M17.8945 8.04688C18.0312 7.91016 18.25 7.91016 18.3594 8.04688L19.1523 8.8125C19.2617 8.94922 19.2617 9.16797 19.1523 9.27734L10.9492 17.4805C10.8125 17.6172 10.6211 17.6172 10.4844 17.4805L6.82031 13.8438C6.71094 13.707 6.71094 13.4883 6.82031 13.3789L7.61328 12.5859C7.72266 12.4766 7.94141 12.4766 8.07812 12.5859L10.7031 15.2383L17.8945 8.04688Z" fill="white"/>
</svg>
