<svg width="25" height="24" viewBox="0 0 25 24" fill="none" xmlns="http://www.w3.org/2000/svg">
<path d="M25 12C25 18.6274 19.4036 24 12.5 24C5.59644 24 0 18.6274 0 12C0 5.37258 5.59644 0 12.5 0C19.4036 0 25 5.37258 25 12Z" fill="#1AC5C4"/>
<path d="M16.8438 5.75C17.1992 5.75 17.5 6.05078 17.5 6.40625V19.0938C17.5 19.4766 17.1992 19.75 16.8438 19.75H7.65625C7.27344 19.75 7 19.4766 7 19.0938V6.40625C7 6.05078 7.27344 5.75 7.65625 5.75H16.8438ZM8.75 8.8125V9.6875C8.75 9.93359 8.94141 10.125 9.1875 10.125H10.0625C10.2812 10.125 10.5 9.93359 10.5 9.6875V8.8125C10.5 8.59375 10.2812 8.375 10.0625 8.375H9.1875C8.94141 8.375 8.75 8.59375 8.75 8.8125ZM8.77734 12.3672C8.72266 12.4219 8.72266 12.5039 8.77734 12.5586L9.78906 13.5977C9.84375 13.6523 9.95312 13.6523 10.0078 13.5977L11.7578 11.8477C11.8125 11.793 11.8125 11.7109 11.7578 11.6562L11.4023 11.3008C11.3477 11.2461 11.2656 11.2461 11.2109 11.3008L9.89844 12.5859L9.32422 12.0117C9.26953 11.957 9.1875 11.957 9.13281 12.0117L8.77734 12.3672ZM10.5 16.6875V15.8125C10.5 15.5938 10.2812 15.375 10.0625 15.375H9.1875C8.94141 15.375 8.75 15.5938 8.75 15.8125V16.6875C8.75 16.9336 8.94141 17.125 9.1875 17.125H10.0625C10.2812 17.125 10.5 16.9336 10.5 16.6875ZM15.75 16.4688V16.0312C15.75 15.9219 15.6406 15.8125 15.5312 15.8125H11.5938C11.457 15.8125 11.375 15.9219 11.375 16.0312V16.4688C11.375 16.6055 11.457 16.6875 11.5938 16.6875H15.5312C15.6406 16.6875 15.75 16.6055 15.75 16.4688ZM15.75 12.9688H15.7227V12.5312C15.7227 12.4219 15.6133 12.3125 15.4766 12.3125H12.4688C12.4414 12.3672 11.6484 13.1875 11.6484 13.1875H15.4766C15.6133 13.1875 15.75 13.1055 15.75 12.9688ZM15.75 9.46875V9.03125C15.75 8.92188 15.6406 8.8125 15.5312 8.8125H11.5938C11.457 8.8125 11.375 8.92188 11.375 9.03125V9.46875C11.375 9.60547 11.457 9.6875 11.5938 9.6875H15.5312C15.6406 9.6875 15.75 9.60547 15.75 9.46875Z" fill="white"/>
</svg>
