<svg width="26" height="25" viewBox="0 0 26 25" fill="none" xmlns="http://www.w3.org/2000/svg">
<path d="M25.0127 12.1055C25.0127 18.7329 19.4163 24.1055 12.5127 24.1055C5.60914 24.1055 0.0126953 18.7329 0.0126953 12.1055C0.0126953 5.47805 5.60914 0.105469 12.5127 0.105469C19.4163 0.105469 25.0127 5.47805 25.0127 12.1055Z" fill="#FF7A00"/>
<path d="M19 12.75C19 15.1836 17.0312 17.125 14.625 17.125H9.64844L10.5781 18.0273C10.8516 18.2734 10.8516 18.7109 10.6055 18.957L10.3047 19.2578C10.0312 19.5312 9.62109 19.5312 9.375 19.2578L6.83203 16.7148C6.58594 16.4688 6.58594 16.0586 6.83203 15.8125L9.375 13.2695C9.62109 12.9961 10.0312 12.9961 10.3047 13.2695L10.6055 13.5703C10.8516 13.8164 10.8516 14.2539 10.5781 14.5L9.64844 15.375H14.625C16.0469 15.375 17.25 14.1992 17.25 12.75C17.25 12.3945 17.168 12.0117 17.0039 11.6836C16.8945 11.4375 16.9492 11.1641 17.1406 10.9727L17.4688 10.6172C17.7969 10.3164 18.3164 10.3984 18.5078 10.7812C18.8086 11.3828 19 12.0664 19 12.75ZM6.96875 13.8438C7.07812 14.0898 7.02344 14.3633 6.83203 14.5547L6.50391 14.9102C6.17578 15.2109 5.65625 15.1289 5.46484 14.7461C5.16406 14.1445 5 13.4609 5 12.75C5 10.3438 6.94141 8.375 9.375 8.375H14.3242L13.3945 7.5C13.1211 7.25391 13.1211 6.81641 13.3672 6.57031L13.668 6.26953C13.9414 5.99609 14.3516 5.99609 14.5977 6.26953L17.1406 8.8125C17.3867 9.05859 17.3867 9.46875 17.1406 9.71484L14.5977 12.2578C14.3516 12.5312 13.9414 12.5312 13.668 12.2578L13.3672 11.957C13.1211 11.7109 13.1211 11.2734 13.3945 11.0273L14.3242 10.125H9.375C7.92578 10.125 6.75 11.3281 6.75 12.75C6.75 13.1328 6.80469 13.5156 6.96875 13.8438Z" fill="white"/>
</svg>
