<svg width="32" height="32" viewBox="0 0 32 32" fill="none" xmlns="http://www.w3.org/2000/svg">
<path d="M13.9519 1.68709C14.5975 -0.326036 17.4019 -0.326036 18.0454 1.68709L20.3483 8.88278C20.4888 9.32099 20.7624 9.70285 21.1296 9.97371C21.4969 10.2446 21.939 10.3906 22.3929 10.391H29.8439C31.9294 10.391 32.7945 13.1014 31.1094 14.3473L25.0832 18.7932C24.7151 19.0643 24.4412 19.4468 24.3004 19.8858C24.1597 20.3248 24.1594 20.7978 24.2998 21.237L26.6026 28.4327C27.2483 30.4458 24.9777 32.1224 23.2882 30.8764L17.262 26.4305C16.8944 26.1595 16.4518 26.0135 15.9975 26.0135C15.5433 26.0135 15.1007 26.1595 14.7331 26.4305L8.70692 30.8764C7.01958 32.1224 4.75115 30.4458 5.39466 28.4327L7.69753 21.237C7.83781 20.7978 7.83755 20.3248 7.69682 19.8858C7.55608 19.4468 7.28209 19.0643 6.91412 18.7932L0.890087 14.3495C-0.795096 13.1036 0.0722458 10.3932 2.15558 10.3932H9.60439C10.0586 10.3933 10.5012 10.2474 10.8689 9.97653C11.2365 9.70562 11.5103 9.32354 11.6511 8.88496L13.954 1.68928L13.9519 1.68709Z" fill="#FAD35F"/>
</svg>
